<svg width="20" height="20" viewBox="0 0 20 20" fill="none" xmlns="http://www.w3.org/2000/svg">
<path fill-rule="evenodd" clip-rule="evenodd" d="M11.7679 0.767389C10.7916 -0.208922 9.20865 -0.208921 8.23234 0.76739L0.767877 8.23185C-0.208434 9.20817 -0.208432 10.7911 0.767878 11.7674L8.23234 19.2319C9.20865 20.2082 10.7916 20.2082 11.7679 19.2319L19.2323 11.7674C20.2087 10.7911 20.2087 9.20816 19.2323 8.23185L11.7679 0.767389ZM9.00005 5.99962C9.00005 5.44734 9.44776 4.99962 10 4.99962C10.5523 4.99962 11 5.44734 11 5.99962V9.99962C11 10.5519 10.5523 10.9996 10 10.9996C9.44776 10.9996 9.00005 10.5519 9.00005 9.99962V5.99962ZM11 13.9996C11 14.5519 10.5523 14.9996 10 14.9996C9.44776 14.9996 9.00005 14.5519 9.00005 13.9996C9.00005 13.4473 9.44776 12.9996 10 12.9996C10.5523 12.9996 11 13.4473 11 13.9996Z" fill="#D72C0D"/>
</svg>
