<svg width="16" height="12" viewBox="0 0 16 12" fill="none" xmlns="http://www.w3.org/2000/svg">
<path fill-rule="evenodd" clip-rule="evenodd" d="M15.707 5.29325L10.707 0.29325C10.316 -0.09775 9.684 -0.09775 9.293 0.29325C8.902 0.68425 8.902 1.31625 9.293 1.70725L12.586 5.00025H1C0.447 5.00025 0 5.44825 0 6.00025C0 6.55225 0.447 7.00025 1 7.00025H12.586L9.293 10.2933C8.902 10.6842 8.902 11.3162 9.293 11.7072C9.488 11.9022 9.744 12.0002 10 12.0002C10.256 12.0002 10.512 11.9022 10.707 11.7072L15.707 6.70725C16.098 6.31625 16.098 5.68425 15.707 5.29325Z" fill="#5C5F62"/>
</svg>
