<svg width="16" height="12" viewBox="0 0 16 12" fill="none" xmlns="http://www.w3.org/2000/svg">
<path fill-rule="evenodd" clip-rule="evenodd" d="M15.0002 5.00025H3.41425L6.70725 1.70725C7.09825 1.31625 7.09825 0.68425 6.70725 0.29325C6.31625 -0.09775 5.68425 -0.09775 5.29325 0.29325L0.29325 5.29325C-0.09775 5.68425 -0.09775 6.31625 0.29325 6.70725L5.29325 11.7072C5.48825 11.9022 5.74425 12.0002 6.00025 12.0002C6.25625 12.0002 6.51225 11.9022 6.70725 11.7072C7.09825 11.3162 7.09825 10.6842 6.70725 10.2933L3.41425 7.00025H15.0002C15.5532 7.00025 16.0002 6.55225 16.0002 6.00025C16.0002 5.44825 15.5532 5.00025 15.0002 5.00025Z" fill="white"/>
</svg>
