<svg xmlns="http://www.w3.org/2000/svg" width="10.869" height="10.836" viewBox="0 0 10.869 10.836">
  <g id="chevron-bottom2223" transform="translate(3.437 0.436)">
    <path id="Path_15" data-name="Path 15" d="M132.945,4.856,128.361.064a.208.208,0,0,0-.3.288L132.506,5,128.06,9.648a.208.208,0,0,0,.3.288l4.583-4.792A.209.209,0,0,0,132.945,4.856Z" transform="translate(-131.003 0)" fill="#a1a2a3" stroke="#a1a2a3" stroke-width="0.8"/>
    <path id="Path_5987" data-name="Path 5987" d="M132.945,4.856,128.361.064a.208.208,0,0,0-.3.288L132.506,5,128.06,9.648a.208.208,0,0,0,.3.288l4.583-4.792A.209.209,0,0,0,132.945,4.856Z" transform="translate(-126.002)" fill="#a1a2a3" stroke="#a1a2a3" stroke-width="0.8"/>
  </g>
</svg>
