<svg xmlns="http://www.w3.org/2000/svg" width="14" height="14" viewBox="0 0 14 14">
  <path id="calendar" d="M12.833,14H1.167A1.168,1.168,0,0,1,0,12.833V2.333A1.168,1.168,0,0,1,1.167,1.167H4.083V.583a.583.583,0,1,1,1.167,0v.583h3.5V.583a.583.583,0,1,1,1.167,0v.583h2.917A1.168,1.168,0,0,1,14,2.333v10.5A1.168,1.168,0,0,1,12.833,14ZM9.917,2.333v.583a.583.583,0,1,1-1.167,0V2.333H5.25v.583a.583.583,0,1,1-1.167,0V2.333H1.167v10.5H12.832l0-10.5ZM11.083,10.5H9.917a.584.584,0,0,1-.583-.583V8.75a.584.584,0,0,1,.583-.583h1.167a.584.584,0,0,1,.583.583V9.917A.584.584,0,0,1,11.083,10.5Zm0-3.5H9.917a.584.584,0,0,1-.583-.583V5.25a.584.584,0,0,1,.583-.583h1.167a.584.584,0,0,1,.583.583V6.417A.584.584,0,0,1,11.083,7Zm-3.5,3.5H6.417a.584.584,0,0,1-.583-.583V8.75a.584.584,0,0,1,.583-.583H7.583a.584.584,0,0,1,.583.583V9.917A.584.584,0,0,1,7.583,10.5Zm0-3.5H6.417a.584.584,0,0,1-.583-.583V5.25a.584.584,0,0,1,.583-.583H7.583a.584.584,0,0,1,.583.583V6.417A.584.584,0,0,1,7.583,7Zm-3.5,3.5H2.917a.584.584,0,0,1-.583-.583V8.75a.584.584,0,0,1,.583-.583H4.083a.584.584,0,0,1,.583.583V9.917A.584.584,0,0,1,4.083,10.5Zm0-3.5H2.917a.584.584,0,0,1-.583-.583V5.25a.584.584,0,0,1,.583-.583H4.083a.584.584,0,0,1,.583.583V6.417A.584.584,0,0,1,4.083,7Z" fill="#c1c7ce" fill-rule="evenodd"/>
</svg>
