<svg id="share_icon" data-name="share icon" xmlns="http://www.w3.org/2000/svg" width="18" height="18" viewBox="0 0 18 18">
  <path id="share1" d="M15,6a2.98,2.98,0,0,1-2.265-1.055L5.925,8.351A2.892,2.892,0,0,1,5.94,9.591l6.8,3.46a2.929,2.929,0,1,1-.675,1.34l-6.79-3.456a3,3,0,1,1-.038-3.917L12.062,3.6A3,3,0,1,1,15,6Zm0,10.5A1.5,1.5,0,1,0,13.5,15,1.5,1.5,0,0,0,15,16.5ZM3,7.5A1.5,1.5,0,1,0,4.5,9,1.5,1.5,0,0,0,3,7.5Zm12-6A1.5,1.5,0,1,0,16.5,3,1.5,1.5,0,0,0,15,1.5Z" fill="#c4c7c9" fill-rule="evenodd"/>
</svg>
