<?xml version="1.0" encoding="UTF-8" standalone="no"?>
<!DOCTYPE svg PUBLIC "-//W3C//DTD SVG 1.1//EN" "http://www.w3.org/Graphics/SVG/1.1/DTD/svg11.dtd">
<svg width="100%" height="100%" viewBox="0 0 128 128" version="1.1" xmlns="http://www.w3.org/2000/svg" xmlns:xlink="http://www.w3.org/1999/xlink" xml:space="preserve" xmlns:serif="http://www.serif.com/" style="fill-rule:evenodd;clip-rule:evenodd;stroke-linecap:round;stroke-linejoin:round;stroke-miterlimit:2;">
    <g transform="matrix(0.560096,0,0,0.560096,-48.1185,-1288.08)">
        <g transform="matrix(0.84375,0,0,0.963755,-780,2234.67)">
            <path d="M1254.4,138.02C1254.4,125.751 1243.02,115.79 1229.01,115.79L1074.99,115.79C1060.98,115.79 1049.6,125.751 1049.6,138.02L1049.6,272.169C1049.6,284.439 1060.98,294.4 1074.99,294.4L1229.01,294.4C1243.02,294.4 1254.4,284.439 1254.4,272.169L1254.4,138.02Z" style="fill:white;"/>
            <clipPath id="_clip1">
                <path d="M1254.4,138.02C1254.4,125.751 1243.02,115.79 1229.01,115.79L1074.99,115.79C1060.98,115.79 1049.6,125.751 1049.6,138.02L1049.6,272.169C1049.6,284.439 1060.98,294.4 1074.99,294.4L1229.01,294.4C1243.02,294.4 1254.4,284.439 1254.4,272.169L1254.4,138.02Z"/>
            </clipPath>
            <g clip-path="url(#_clip1)">
                <g transform="matrix(1.33333,0,0,1.16731,-384,-19.3726)">
                    <path d="M1067,153.6L1237,153.6" style="fill:none;stroke:rgb(49,52,63);stroke-width:7.94px;"/>
                </g>
            </g>
            <path d="M1254.4,138.02C1254.4,125.751 1243.02,115.79 1229.01,115.79L1074.99,115.79C1060.98,115.79 1049.6,125.751 1049.6,138.02L1049.6,272.169C1049.6,284.439 1060.98,294.4 1074.99,294.4L1229.01,294.4C1243.02,294.4 1254.4,284.439 1254.4,272.169L1254.4,138.02ZM1247.73,138.02L1247.73,272.169C1247.73,281.218 1239.34,288.563 1229.01,288.563L1074.99,288.563C1064.66,288.563 1056.27,281.218 1056.27,272.169L1056.27,138.02C1056.27,128.972 1064.66,121.626 1074.99,121.626L1229.01,121.626C1239.34,121.626 1247.73,128.972 1247.73,138.02Z" style="fill:rgb(49,52,63);"/>
        </g>
        <g transform="matrix(1.125,0,0,0.949219,-1075.2,2240.75)">
            <path d="M1100.8,100.886C1100.8,94.657 1096.53,89.6 1091.28,89.6L1084.72,89.6C1079.47,89.6 1075.2,94.657 1075.2,100.886L1075.2,129.514C1075.2,135.743 1079.47,140.8 1084.72,140.8L1091.28,140.8C1096.53,140.8 1100.8,135.743 1100.8,129.514L1100.8,100.886Z" style="fill:white;"/>
            <path d="M1100.8,100.886C1100.8,94.657 1096.53,89.6 1091.28,89.6L1084.72,89.6C1079.47,89.6 1075.2,94.657 1075.2,100.886L1075.2,129.514C1075.2,135.743 1079.47,140.8 1084.72,140.8L1091.28,140.8C1096.53,140.8 1100.8,135.743 1100.8,129.514L1100.8,100.886ZM1095.8,100.886L1095.8,129.514C1095.8,132.473 1093.77,134.874 1091.28,134.874L1084.72,134.874C1082.23,134.874 1080.2,132.473 1080.2,129.514C1080.2,129.514 1080.2,100.886 1080.2,100.886C1080.2,97.927 1082.23,95.526 1084.72,95.526L1091.28,95.526C1093.77,95.526 1095.8,97.927 1095.8,100.886Z" style="fill:rgb(49,52,63);"/>
        </g>
        <g transform="matrix(1.125,0,0,0.949219,-1132.8,2240.75)">
            <path d="M1228.8,100.886C1228.8,94.657 1224.53,89.6 1219.28,89.6L1212.72,89.6C1207.47,89.6 1203.2,94.657 1203.2,100.886L1203.2,129.514C1203.2,135.743 1207.47,140.8 1212.72,140.8L1219.28,140.8C1224.53,140.8 1228.8,135.743 1228.8,129.514L1228.8,100.886Z" style="fill:white;"/>
            <path d="M1228.8,100.886C1228.8,94.657 1224.53,89.6 1219.28,89.6L1212.72,89.6C1207.47,89.6 1203.2,94.657 1203.2,100.886L1203.2,129.514C1203.2,135.743 1207.47,140.8 1212.72,140.8L1219.28,140.8C1224.53,140.8 1228.8,135.743 1228.8,129.514L1228.8,100.886ZM1223.8,100.886L1223.8,129.514C1223.8,132.473 1221.77,134.874 1219.28,134.874L1212.72,134.874C1210.23,134.874 1208.2,132.473 1208.2,129.514C1208.2,129.514 1208.2,100.886 1208.2,100.886C1208.2,97.927 1210.23,95.526 1212.72,95.526L1219.28,95.526C1221.77,95.526 1223.8,97.927 1223.8,100.886Z" style="fill:rgb(49,52,63);"/>
        </g>
    </g>
    <g transform="matrix(0.560096,0,0,0.560096,-39.8153,-1299.71)">
        <g transform="matrix(0.84375,0,0,0.963755,-780,2234.67)">
            <path d="M1254.4,138.02C1254.4,125.751 1243.02,115.79 1229.01,115.79L1074.99,115.79C1060.98,115.79 1049.6,125.751 1049.6,138.02L1049.6,272.169C1049.6,284.439 1060.98,294.4 1074.99,294.4L1229.01,294.4C1243.02,294.4 1254.4,284.439 1254.4,272.169L1254.4,138.02Z" style="fill:white;"/>
            <clipPath id="_clip2">
                <path d="M1254.4,138.02C1254.4,125.751 1243.02,115.79 1229.01,115.79L1074.99,115.79C1060.98,115.79 1049.6,125.751 1049.6,138.02L1049.6,272.169C1049.6,284.439 1060.98,294.4 1074.99,294.4L1229.01,294.4C1243.02,294.4 1254.4,284.439 1254.4,272.169L1254.4,138.02Z"/>
            </clipPath>
            <g clip-path="url(#_clip2)">
                <g transform="matrix(1.33333,0,0,1.16731,-384,-19.3726)">
                    <path d="M1067,153.6L1237,153.6" style="fill:none;stroke:rgb(49,52,63);stroke-width:7.94px;"/>
                </g>
            </g>
            <path d="M1254.4,138.02C1254.4,125.751 1243.02,115.79 1229.01,115.79L1074.99,115.79C1060.98,115.79 1049.6,125.751 1049.6,138.02L1049.6,272.169C1049.6,284.439 1060.98,294.4 1074.99,294.4L1229.01,294.4C1243.02,294.4 1254.4,284.439 1254.4,272.169L1254.4,138.02ZM1247.73,138.02L1247.73,272.169C1247.73,281.218 1239.34,288.563 1229.01,288.563L1074.99,288.563C1064.66,288.563 1056.27,281.218 1056.27,272.169L1056.27,138.02C1056.27,128.972 1064.66,121.626 1074.99,121.626L1229.01,121.626C1239.34,121.626 1247.73,128.972 1247.73,138.02Z" style="fill:rgb(49,52,63);"/>
        </g>
        <g transform="matrix(1.125,0,0,0.949219,-1075.2,2240.75)">
            <path d="M1100.8,100.886C1100.8,94.657 1096.53,89.6 1091.28,89.6L1084.72,89.6C1079.47,89.6 1075.2,94.657 1075.2,100.886L1075.2,129.514C1075.2,135.743 1079.47,140.8 1084.72,140.8L1091.28,140.8C1096.53,140.8 1100.8,135.743 1100.8,129.514L1100.8,100.886Z" style="fill:white;"/>
            <path d="M1100.8,100.886C1100.8,94.657 1096.53,89.6 1091.28,89.6L1084.72,89.6C1079.47,89.6 1075.2,94.657 1075.2,100.886L1075.2,129.514C1075.2,135.743 1079.47,140.8 1084.72,140.8L1091.28,140.8C1096.53,140.8 1100.8,135.743 1100.8,129.514L1100.8,100.886ZM1095.8,100.886L1095.8,129.514C1095.8,132.473 1093.77,134.874 1091.28,134.874L1084.72,134.874C1082.23,134.874 1080.2,132.473 1080.2,129.514C1080.2,129.514 1080.2,100.886 1080.2,100.886C1080.2,97.927 1082.23,95.526 1084.72,95.526L1091.28,95.526C1093.77,95.526 1095.8,97.927 1095.8,100.886Z" style="fill:rgb(49,52,63);"/>
        </g>
        <g transform="matrix(1.71034,0,0,1.71034,69.804,2314.39)">
            <rect x="30.485" y="54.201" width="14.462" height="14.462" style="fill:white;stroke:black;stroke-width:2.61px;stroke-miterlimit:6;"/>
        </g>
        <g transform="matrix(1.71034,0,0,1.71034,108.754,2314.39)">
            <rect x="30.485" y="54.201" width="14.462" height="14.462" style="fill:rgb(49,52,63);stroke:rgb(49,52,63);stroke-width:2.61px;stroke-miterlimit:6;"/>
        </g>
        <g transform="matrix(1.71034,0,0,1.71034,147.181,2314.39)">
            <rect x="30.485" y="54.201" width="14.462" height="14.462" style="fill:white;stroke:black;stroke-width:2.61px;stroke-miterlimit:6;"/>
        </g>
        <g transform="matrix(1.71034,0,0,1.71034,182.489,2314.39)">
            <rect x="30.485" y="54.201" width="14.462" height="14.462" style="fill:white;stroke:black;stroke-width:2.61px;stroke-miterlimit:6;"/>
        </g>
        <g transform="matrix(1.71034,0,0,1.71034,69.804,2348.59)">
            <rect x="30.485" y="54.201" width="14.462" height="14.462" style="fill:white;stroke:black;stroke-width:2.61px;stroke-miterlimit:6;"/>
        </g>
        <g transform="matrix(1.71034,0,0,1.71034,108.754,2348.59)">
            <rect x="30.485" y="54.201" width="14.462" height="14.462" style="fill:white;stroke:black;stroke-width:2.61px;stroke-miterlimit:6;"/>
        </g>
        <g transform="matrix(1.71034,0,0,1.71034,147.181,2348.59)">
            <rect x="30.485" y="54.201" width="14.462" height="14.462" style="fill:white;stroke:black;stroke-width:2.61px;stroke-miterlimit:6;"/>
        </g>
        <g transform="matrix(1.71034,0,0,1.71034,182.489,2348.59)">
            <rect x="30.485" y="54.201" width="14.462" height="14.462" style="fill:white;stroke:black;stroke-width:2.61px;stroke-miterlimit:6;"/>
        </g>
        <g transform="matrix(1.71034,0,0,1.71034,69.804,2382.8)">
            <rect x="30.485" y="54.201" width="14.462" height="14.462" style="fill:white;stroke:black;stroke-width:2.61px;stroke-miterlimit:6;"/>
        </g>
        <g transform="matrix(1.71034,0,0,1.71034,108.754,2382.8)">
            <rect x="30.485" y="54.201" width="14.462" height="14.462" style="fill:white;stroke:black;stroke-width:2.61px;stroke-miterlimit:6;"/>
        </g>
        <g transform="matrix(1.71034,0,0,1.71034,147.181,2382.8)">
            <rect x="30.485" y="54.201" width="14.462" height="14.462" style="fill:white;stroke:black;stroke-width:2.61px;stroke-miterlimit:6;"/>
        </g>
        <g transform="matrix(1.71034,0,0,1.71034,182.489,2382.8)">
            <rect x="30.485" y="54.201" width="14.462" height="14.462" style="fill:white;stroke:black;stroke-width:2.61px;stroke-miterlimit:6;"/>
        </g>
        <g transform="matrix(1.125,0,0,0.949219,-1132.8,2240.75)">
            <path d="M1228.8,100.886C1228.8,94.657 1224.53,89.6 1219.28,89.6L1212.72,89.6C1207.47,89.6 1203.2,94.657 1203.2,100.886L1203.2,129.514C1203.2,135.743 1207.47,140.8 1212.72,140.8L1219.28,140.8C1224.53,140.8 1228.8,135.743 1228.8,129.514L1228.8,100.886Z" style="fill:white;"/>
            <path d="M1228.8,100.886C1228.8,94.657 1224.53,89.6 1219.28,89.6L1212.72,89.6C1207.47,89.6 1203.2,94.657 1203.2,100.886L1203.2,129.514C1203.2,135.743 1207.47,140.8 1212.72,140.8L1219.28,140.8C1224.53,140.8 1228.8,135.743 1228.8,129.514L1228.8,100.886ZM1223.8,100.886L1223.8,129.514C1223.8,132.473 1221.77,134.874 1219.28,134.874L1212.72,134.874C1210.23,134.874 1208.2,132.473 1208.2,129.514L1208.2,100.886C1208.2,97.927 1210.23,95.526 1212.72,95.526L1219.28,95.526C1221.77,95.526 1223.8,97.927 1223.8,100.886Z" style="fill:rgb(49,52,63);"/>
        </g>
    </g>
</svg>
