<?xml version="1.0" encoding="UTF-8" standalone="no"?>
<!DOCTYPE svg PUBLIC "-//W3C//DTD SVG 1.1//EN" "http://www.w3.org/Graphics/SVG/1.1/DTD/svg11.dtd">
<svg width="100%" height="100%" viewBox="0 0 128 128" version="1.1" xmlns="http://www.w3.org/2000/svg" xmlns:xlink="http://www.w3.org/1999/xlink" xml:space="preserve" xmlns:serif="http://www.serif.com/" style="fill-rule:evenodd;clip-rule:evenodd;stroke-linejoin:round;stroke-miterlimit:2;">
    <g transform="matrix(1.83301,0,0,1.83301,-1051.76,-590.364)">
        <path d="M637.742,362.39L629.87,363.904L626.639,371.273L622.803,364.308L614.83,363.5L620.281,357.646L618.565,349.874L625.832,353.205L632.695,349.167L631.686,357.142L637.742,362.39Z" style="fill:rgb(55,58,69);fill-opacity:0.19;fill-rule:nonzero;"/>
    </g>
    <g transform="matrix(1.83301,0,0,1.83301,-1116.63,-590.481)">
        <path d="M637.742,362.39L629.87,363.904L626.639,371.273L622.803,364.308L614.83,363.5L620.281,357.646L618.565,349.874L625.832,353.205L632.695,349.167L631.686,357.142L637.742,362.39Z" style="fill:rgb(55,58,69);fill-opacity:0.19;fill-rule:nonzero;"/>
    </g>
    <g transform="matrix(1.83301,0,0,1.83301,-1051.76,-590.364)">
        <path d="M599.993,337.257L603.929,341.093C604.232,341.396 604.333,341.799 604.333,342.203L603.324,347.451L608.168,344.928C608.572,344.727 608.976,344.727 609.379,344.928L614.224,347.451L613.215,342.102C613.114,341.698 613.316,341.295 613.619,340.991L617.555,337.156L612.206,336.349C611.802,336.248 611.398,336.046 611.297,335.643L608.875,330.797L606.453,335.643C606.25,336.046 605.948,336.248 605.543,336.349L599.993,337.257ZM615.839,351.085C615.637,351.085 615.435,351.085 615.234,350.984L608.774,347.451L602.314,350.883C601.911,351.085 601.406,351.085 601.001,350.782C600.598,350.48 600.396,349.975 600.498,349.571L601.708,342.304L596.459,337.156C596.157,336.854 595.955,336.349 596.157,335.844C596.258,335.34 596.662,335.036 597.167,334.936L604.433,333.926L607.664,327.365C607.866,326.962 608.269,326.659 608.774,326.659C609.279,326.659 609.682,326.962 609.884,327.365L613.114,333.926L620.381,334.936C620.886,335.036 621.29,335.34 621.39,335.844C621.492,336.349 621.39,336.752 621.087,337.156L615.839,342.304L617.05,349.571C617.152,350.076 616.95,350.48 616.545,350.782C616.344,350.984 616.142,351.085 615.839,351.085Z" style="fill:rgb(55,58,69);fill-rule:nonzero;"/>
    </g>
    <g transform="matrix(1.83301,0,0,1.83301,-1051.76,-590.364)">
        <path d="M608.37,387.32C608.168,387.32 607.866,387.22 607.664,387.119C607.058,386.715 606.957,385.907 607.259,385.403L607.563,384.999L621.087,364.308C621.492,363.702 622.299,363.601 622.803,363.904C623.41,364.308 623.51,365.115 623.208,365.62L609.48,386.715C609.177,387.119 608.774,387.32 608.37,387.32Z" style="fill:rgb(55,58,69);fill-rule:nonzero;"/>
    </g>
    <g transform="matrix(1.83301,0,0,1.83301,-1051.76,-590.364)">
        <path d="M617.455,362.491L622.905,362.995C623.308,362.995 623.712,363.298 623.914,363.601L626.539,368.345L628.658,363.399C628.86,362.995 629.163,362.794 629.566,362.692L634.916,361.684L630.878,358.05C630.576,357.747 630.374,357.343 630.475,356.94L631.181,351.59L626.539,354.316C626.134,354.517 625.731,354.517 625.327,354.416L620.381,352.095L621.592,357.444C621.694,357.848 621.592,358.252 621.29,358.555L617.455,362.491ZM626.639,372.483C626.134,372.483 625.731,372.281 625.529,371.878L621.997,365.519L614.729,364.813C614.224,364.813 613.821,364.408 613.719,364.005C613.518,363.601 613.619,363.097 614.022,362.692L618.968,357.343L617.353,350.177C617.252,349.672 617.455,349.269 617.757,348.966C618.161,348.663 618.666,348.562 619.069,348.764L625.731,351.893L632.089,348.158C632.494,347.956 632.999,347.956 633.402,348.158C633.805,348.461 634.007,348.864 634.007,349.369L633.099,356.637L638.549,361.482C638.954,361.784 639.054,362.289 638.954,362.794C638.852,363.298 638.449,363.601 637.944,363.702L630.778,365.115L627.85,371.878C627.649,372.181 627.245,372.483 626.639,372.483C626.74,372.483 626.639,372.483 626.639,372.483Z" style="fill:rgb(55,58,69);fill-rule:nonzero;"/>
    </g>
    <g transform="matrix(1.83301,0,0,1.83301,-1051.76,-590.364)">
        <path d="M608.673,387.32C608.269,387.32 607.866,387.119 607.664,386.715L607.563,386.513L593.835,365.62C593.432,365.014 593.633,364.207 594.239,363.904C594.845,363.5 595.652,363.702 595.955,364.308L609.682,385.201L609.783,385.403C610.187,386.009 609.985,386.816 609.379,387.119C609.177,387.22 608.875,387.32 608.673,387.32Z" style="fill:rgb(55,58,69);fill-rule:nonzero;"/>
    </g>
    <g transform="matrix(1.83301,0,0,1.83301,-1051.76,-590.364)">
        <path d="M582.329,361.684L587.477,362.692C587.88,362.794 588.183,363.097 588.385,363.399L590.504,368.345L593.129,363.601C593.331,363.197 593.735,362.995 594.138,362.995L599.588,362.491L595.854,358.555C595.551,358.252 595.451,357.848 595.551,357.444L596.762,352.095L591.817,354.416C591.414,354.517 591.009,354.517 590.606,354.316L585.962,351.59L586.669,356.94C586.669,357.343 586.568,357.747 586.265,358.05L582.329,361.684ZM590.404,372.483C589.899,372.483 589.394,372.181 589.293,371.676L586.367,364.913L579.402,363.601C578.897,363.5 578.594,363.197 578.392,362.692C578.292,362.188 578.392,361.784 578.796,361.381L584.044,356.535L583.136,349.269C583.036,348.764 583.338,348.359 583.742,348.057C584.146,347.754 584.651,347.754 585.054,348.057L591.414,351.792L598.075,348.663C598.478,348.461 598.983,348.562 599.387,348.864C599.791,349.167 599.891,349.672 599.791,350.076L598.175,357.242L603.122,362.592C603.424,362.895 603.525,363.5 603.424,363.904C603.222,364.308 602.819,364.711 602.415,364.711L595.046,365.418L591.514,371.776C591.312,372.281 590.909,372.483 590.404,372.483Z" style="fill:rgb(55,58,69);fill-rule:nonzero;"/>
    </g>
    <g transform="matrix(1.83301,0,0,1.83301,-1051.76,-590.364)">
        <path d="M637.742,387.32L579.705,387.32C578.999,387.32 578.392,386.715 578.392,386.009C578.392,385.302 578.999,384.696 579.705,384.696L637.742,384.696C638.449,384.696 639.054,385.302 639.054,386.009C638.954,386.715 638.348,387.32 637.742,387.32Z" style="fill:rgb(55,58,69);fill-rule:nonzero;"/>
    </g>
</svg>
