<?xml version="1.0" encoding="UTF-8" standalone="no"?>
<!DOCTYPE svg PUBLIC "-//W3C//DTD SVG 1.1//EN" "http://www.w3.org/Graphics/SVG/1.1/DTD/svg11.dtd">
<svg width="100%" height="100%" viewBox="0 0 128 128" version="1.1" xmlns="http://www.w3.org/2000/svg" xmlns:xlink="http://www.w3.org/1999/xlink" xml:space="preserve" xmlns:serif="http://www.serif.com/" style="fill-rule:evenodd;clip-rule:evenodd;stroke-linecap:round;">
    <g id="Performers" transform="matrix(0.573006,0,0,0.573006,-1515.49,-48.0935)">
        <g transform="matrix(1,0,0,1,3.49037,-13.9615)">
            <g transform="matrix(1,0,0,1,-51.2,0)">
                <g transform="matrix(0.992546,0.121869,-0.121869,0.992546,44.8152,-329.858)">
                    <path d="M2752,204.8C2752,204.8 2751.93,204.224 2751.81,203.224C2749.28,182.489 2749.34,161.519 2752,140.8C2752,140.8 2752,140.8 2752,140.8" style="fill:none;stroke:rgb(49,52,63);stroke-width:5.24px;"/>
                </g>
                <g transform="matrix(0.956305,0.292372,-0.438558,1.43446,189.185,-859.124)">
                    <path d="M2764.8,122.027C2764.8,118.259 2760.21,115.2 2754.56,115.2L2749.44,115.2C2743.79,115.2 2739.2,118.259 2739.2,122.027L2739.2,133.973C2739.2,137.741 2743.79,140.8 2749.44,140.8L2754.56,140.8C2760.21,140.8 2764.8,137.741 2764.8,133.973L2764.8,122.027ZM2759.56,122.027L2759.56,133.973C2759.56,135.815 2757.32,137.31 2754.56,137.31C2754.56,137.31 2749.44,137.31 2749.44,137.31C2746.68,137.31 2744.44,135.815 2744.44,133.973C2744.44,133.973 2744.44,122.027 2744.44,122.027C2744.44,120.185 2746.68,118.69 2749.44,118.69L2754.56,118.69C2757.32,118.69 2759.56,120.185 2759.56,122.027Z" style="fill:rgb(49,52,63);"/>
                </g>
            </g>
            <g transform="matrix(-1,0,0,1,5555.2,0)">
                <g transform="matrix(0.992546,0.121869,-0.121869,0.992546,44.8152,-329.858)">
                    <path d="M2752,204.8C2752,204.8 2751.93,204.224 2751.81,203.224C2749.28,182.489 2749.34,161.519 2752,140.8C2752,140.8 2752,140.8 2752,140.8" style="fill:none;stroke:rgb(49,52,63);stroke-width:5.24px;"/>
                </g>
                <g transform="matrix(0.956305,0.292372,-0.438558,1.43446,189.185,-859.124)">
                    <path d="M2764.8,122.027C2764.8,118.259 2760.21,115.2 2754.56,115.2L2749.44,115.2C2743.79,115.2 2739.2,118.259 2739.2,122.027L2739.2,133.973C2739.2,137.741 2743.79,140.8 2749.44,140.8L2754.56,140.8C2760.21,140.8 2764.8,137.741 2764.8,133.973L2764.8,122.027ZM2759.56,122.027C2759.56,120.185 2757.32,118.69 2754.56,118.69C2754.56,118.69 2749.44,118.69 2749.44,118.69C2746.68,118.69 2744.44,120.185 2744.44,122.027L2744.44,133.973C2744.44,135.815 2746.68,137.31 2749.44,137.31L2754.56,137.31C2757.32,137.31 2759.56,135.815 2759.56,133.973C2759.56,133.973 2759.56,122.027 2759.56,122.027Z" style="fill:rgb(49,52,63);"/>
                </g>
            </g>
        </g>
        <g transform="matrix(1,0,0,1,3.49037,-22.7615)">
            <path d="M2854.4,217.6L2649.6,217.6L2649.6,268.8L2854.4,268.8L2854.4,217.6ZM2849.16,222.836L2849.16,263.564C2849.16,263.564 2654.84,263.564 2654.84,263.564C2654.84,263.564 2654.84,222.836 2654.84,222.836L2849.16,222.836Z" style="fill:rgb(49,52,63);"/>
        </g>
        <g transform="matrix(0.75,0,0,0.75,691.49,80.8385)">
            <path d="M2854.4,263.467L2854.4,217.6L2649.6,217.6L2649.6,263.467" style="fill:none;stroke:rgb(49,52,63);stroke-width:6.98px;"/>
        </g>
        <g transform="matrix(1,0,0,1,16.4904,-23.9615)">
            <path d="M2700.8,302.4L2700.8,294.399C2700.8,291.005 2702.15,287.749 2704.55,285.349C2706.95,282.948 2710.2,281.6 2713.6,281.6C2713.6,281.6 2713.6,281.6 2713.6,281.6C2716.99,281.6 2720.25,282.948 2722.65,285.349C2725.05,287.749 2726.4,291.005 2726.4,294.399C2726.4,298.687 2726.4,302.4 2726.4,302.4" style="fill:none;stroke:rgb(49,52,63);stroke-width:3.66px;"/>
        </g>
        <g transform="matrix(1,0,0,1,67.2904,-13.9615)">
            <path d="M2700.8,292.4L2700.8,284.399C2700.8,281.005 2702.15,277.749 2704.55,275.349C2706.95,272.948 2710.2,271.6 2713.6,271.6C2713.6,271.6 2713.6,271.6 2713.6,271.6C2716.99,271.6 2720.25,272.948 2722.65,275.349C2725.05,277.749 2726.4,281.005 2726.4,284.399C2726.4,288.687 2726.4,292.4 2726.4,292.4" style="fill:none;stroke:rgb(49,52,63);stroke-width:3.66px;"/>
        </g>
    </g>
</svg>
