<?xml version="1.0" encoding="UTF-8" standalone="no"?>
<!DOCTYPE svg PUBLIC "-//W3C//DTD SVG 1.1//EN" "http://www.w3.org/Graphics/SVG/1.1/DTD/svg11.dtd">
<svg width="100%" height="100%" viewBox="0 0 50 51" version="1.1" xmlns="http://www.w3.org/2000/svg" xmlns:xlink="http://www.w3.org/1999/xlink" xml:space="preserve" xmlns:serif="http://www.serif.com/" style="fill-rule:evenodd;clip-rule:evenodd;stroke-linejoin:round;stroke-miterlimit:2;">
    <g transform="matrix(0.0875733,0,0,0.0875733,4.14386,3.69047)">
        <path d="M276.699,496C275.602,496 274.492,495.773 273.449,495.309C270.563,494.023 268.703,491.16 268.703,488L268.703,414.379C268.703,398.004 282.184,384.684 298.758,384.684L382.625,384.684C385.938,384.684 388.906,386.723 390.094,389.82C391.281,392.91 390.438,396.414 387.977,398.633L282.055,493.953C280.555,495.297 278.641,496 276.699,496ZM298.754,400.68C291.004,400.68 284.699,406.824 284.699,414.375L284.699,470.035L361.773,400.68L298.754,400.68Z" style="fill:rgb(72,85,102);fill-rule:nonzero;"/>
    </g>
    <g transform="matrix(0.0875733,0,0,0.0875733,4.14386,3.69047)">
        <path d="M276.699,496L43.805,496C19.652,496 0,476.609 0,452.773L0,43.227C0,19.391 19.652,0 43.805,0L346.945,0C371.098,0 390.746,19.391 390.746,43.227L390.746,124.734C390.746,129.152 387.164,132.734 382.746,132.734C378.332,132.734 374.746,129.152 374.746,124.734L374.746,43.227C374.746,28.211 362.273,16 346.945,16L43.805,16C28.473,16 16,28.211 16,43.227L16,452.777C16,467.789 28.473,480 43.805,480L273.637,480L374.746,389.117L374.746,219.598C374.746,215.18 378.332,211.598 382.746,211.598C387.164,211.598 390.746,215.18 390.746,219.598L390.746,392.68C390.746,394.949 389.785,397.113 388.098,398.629L282.051,493.949C280.578,495.27 278.676,496 276.699,496Z" style="fill:rgb(72,85,102);fill-rule:nonzero;"/>
    </g>
    <g transform="matrix(0.0875733,0,0,0.0875733,4.14386,3.69047)">
        <path d="M233.277,261.355L76.367,261.355C71.953,261.355 68.367,257.773 68.367,253.355C68.367,248.941 71.953,245.355 76.367,245.355L233.277,245.355C237.691,245.355 241.277,248.941 241.277,253.355C241.277,257.773 237.691,261.355 233.277,261.355Z" style="fill:rgb(72,85,102);fill-rule:nonzero;"/>
    </g>
    <g transform="matrix(0.0875733,0,0,0.0875733,4.14386,3.69047)">
        <path d="M293.551,199.438L76.367,199.438C71.953,199.438 68.367,195.852 68.367,191.438C68.367,187.02 71.953,183.438 76.367,183.438L293.551,183.438C297.969,183.438 301.551,187.02 301.551,191.438C301.551,195.852 297.973,199.438 293.551,199.438Z" style="fill:rgb(72,85,102);fill-rule:nonzero;"/>
    </g>
    <g transform="matrix(0.0875733,0,0,0.0875733,4.14386,3.69047)">
        <path d="M228.355,318.887L76.367,318.887C71.953,318.887 68.367,315.305 68.367,310.887C68.367,306.473 71.953,302.887 76.367,302.887L228.355,302.887C232.773,302.887 236.355,306.473 236.355,310.887C236.355,315.305 232.773,318.887 228.355,318.887Z" style="fill:rgb(72,85,102);fill-rule:nonzero;"/>
    </g>
    <g transform="matrix(0.0875733,0,0,0.0875733,4.14386,3.69047)">
        <path d="M215.492,376.422L76.371,376.422C71.957,376.422 68.371,372.836 68.371,368.422C68.371,364.004 71.957,360.422 76.371,360.422L215.492,360.422C219.906,360.422 223.492,364.004 223.492,368.422C223.492,372.836 219.906,376.422 215.492,376.422Z" style="fill:rgb(72,85,102);fill-rule:nonzero;"/>
    </g>
    <g transform="matrix(0.0875733,0,0,0.0875733,4.14386,3.69047)">
        <path d="M305.551,135.578L76.367,135.578C71.953,135.578 68.367,131.996 68.367,127.578C68.367,123.164 71.953,119.578 76.367,119.578L305.551,119.578C309.969,119.578 313.551,123.164 313.551,127.578C313.551,131.996 309.973,135.578 305.551,135.578Z" style="fill:rgb(72,85,102);fill-rule:nonzero;"/>
    </g>
    <g transform="matrix(0.0875733,0,0,0.0875733,4.14386,3.69047)">
        <path d="M460.324,137.52C458.504,137.52 456.672,136.902 455.176,135.641L407.563,95.547C405.926,94.168 404.902,92.188 404.738,90.047C404.57,87.91 405.273,85.797 406.68,84.18L427.695,60.02C433.215,53.672 440.777,49.832 448.977,49.203C457.184,48.578 465.23,51.219 471.672,56.645L485.973,68.688C491.797,73.594 495.324,80.465 495.91,88.039C496.496,95.598 494.078,102.902 489.109,108.621L466.355,134.773C464.785,136.59 462.559,137.52 460.324,137.52ZM424.086,88.543L459.457,118.332L477.039,98.121C479.176,95.664 480.211,92.523 479.961,89.281C479.707,86.012 478.18,83.043 475.664,80.93L461.363,68.883C458.148,66.176 454.203,64.848 450.191,65.16C446.207,65.465 442.508,67.367 439.766,70.52L424.086,88.543Z" style="fill:rgb(72,85,102);fill-rule:nonzero;"/>
    </g>
    <g transform="matrix(0.0875733,0,0,0.0875733,4.14386,3.69047)">
        <path d="M218.5,376.969C214.766,376.969 211.039,375.684 208.078,373.188C202.82,368.762 201.016,362.047 203.375,355.672L226.059,293.957C226.813,291.551 228.301,289.848 229.125,288.898L234.242,283.012C237.141,279.68 242.191,279.324 245.531,282.223C248.863,285.125 249.215,290.176 246.32,293.512L241.195,299.402C241.148,299.457 241.102,299.512 241.043,299.57L218.594,360.656L276.879,329.43C276.938,329.363 276.984,329.305 277.035,329.246L282.16,323.355C285.063,320.023 290.117,319.676 293.449,322.566C296.781,325.469 297.133,330.52 294.234,333.855L289.113,339.746C288.289,340.691 286.813,342.391 284.551,343.473L226.062,375.063C223.703,376.344 221.102,376.969 218.5,376.969Z" style="fill:rgb(72,85,102);fill-rule:nonzero;"/>
    </g>
    <g transform="matrix(0.0875733,0,0,0.0875733,4.14386,3.69047)">
        <path d="M240.273,296.266C238.332,296.266 236.383,295.559 234.848,294.141C231.602,291.141 231.398,286.078 234.398,282.836L260.188,254.914L406.469,85.016C409.371,81.684 414.426,81.336 417.758,84.23C421.09,87.133 421.441,92.184 418.539,95.52L409.313,106.125L272.129,265.563L246.152,293.691C244.574,295.398 242.43,296.266 240.273,296.266Z" style="fill:rgb(72,85,102);fill-rule:nonzero;"/>
    </g>
    <g transform="matrix(0.0875733,0,0,0.0875733,4.14386,3.69047)">
        <path d="M288.184,336.613C286.301,336.613 284.402,335.949 282.879,334.602C279.57,331.668 279.27,326.613 282.199,323.305L307.387,294.879L453.781,124.859C456.68,121.531 461.73,121.18 465.066,124.074C468.398,126.977 468.754,132.027 465.852,135.363L461.496,140.371L319.441,305.402L294.176,333.914C292.594,335.699 290.395,336.613 288.184,336.613Z" style="fill:rgb(72,85,102);fill-rule:nonzero;"/>
    </g>
    <g transform="matrix(0.0875733,0,0,0.0875733,4.14386,3.69047)">
        <path d="M288.184,336.613C286.363,336.613 284.535,335.996 283.035,334.73L235.125,294.383C231.742,291.539 231.313,286.492 234.156,283.113C237,279.73 242.047,279.301 245.43,282.145L293.34,322.492C296.719,325.336 297.152,330.383 294.309,333.766C292.723,335.645 290.461,336.613 288.184,336.613Z" style="fill:rgb(72,85,102);fill-rule:nonzero;"/>
    </g>
</svg>
