<?xml version="1.0" encoding="UTF-8" standalone="no"?>
<!DOCTYPE svg PUBLIC "-//W3C//DTD SVG 1.1//EN" "http://www.w3.org/Graphics/SVG/1.1/DTD/svg11.dtd">
<svg width="100%" height="100%" viewBox="0 0 128 128" version="1.1" xmlns="http://www.w3.org/2000/svg" xmlns:xlink="http://www.w3.org/1999/xlink" xml:space="preserve" xmlns:serif="http://www.serif.com/" style="fill-rule:evenodd;clip-rule:evenodd;stroke-linejoin:round;stroke-miterlimit:2;">
    <g transform="matrix(5.6149,0,0,5.6149,-14.6199,-2.10706)">
        <path d="M9,14L20,14L20,9L9,9L9,14ZM9,15L9,20L18.5,20C19.328,20 20,19.328 20,18.5L20,15L9,15ZM8,20L8,9L4,9L4,18.5C4,19.328 4.672,20 5.5,20L8,20ZM20,8L20,5.5C20,4.672 19.328,4 18.5,4L5.5,4C4.672,4 4,4.672 4,5.5L4,8L20,8ZM3,5.5C3,4.119 4.119,3 5.5,3L18.5,3C19.881,3 21,4.119 21,5.5L21,18.5C21,19.881 19.881,21 18.5,21L5.5,21C4.119,21 3,19.881 3,18.5L3,5.5Z" style="fill:rgb(55,58,69);fill-rule:nonzero;stroke:white;stroke-width:0.35px;"/>
    </g>
    <g transform="matrix(1.1929,0,0,1.1929,-2430.62,-520.072)">
        <circle cx="2114.4" cy="509.601" r="28.601" style="fill:white;"/>
        <clipPath id="_clip1">
            <circle cx="2114.4" cy="509.601" r="28.601"/>
        </clipPath>
        <g clip-path="url(#_clip1)">
            <g transform="matrix(0.388383,7.31742e-18,-7.31742e-18,-0.328632,1168.56,580.702)">
                <path d="M2435.2,153.6C2435.2,153.6 2406.4,210.415 2406.4,234.764C2406.4,253.549 2419.3,268.8 2435.2,268.8C2451.1,268.8 2464,253.549 2464,234.764C2464,210.415 2435.2,153.6 2435.2,153.6ZM2435.2,170.796C2430.48,180.972 2424,195.748 2419.3,209.648C2416.07,219.208 2413.6,228.26 2413.6,234.764C2413.6,248.856 2423.28,260.297 2435.2,260.297C2447.12,260.297 2456.8,248.856 2456.8,234.764C2456.8,228.26 2454.33,219.208 2451.1,209.648C2446.4,195.748 2439.92,180.972 2435.2,170.796Z" style="fill:rgb(49,52,63);"/>
            </g>
            <g transform="matrix(0.313694,0,0,0.313694,1349.44,457.376)">
                <path d="M2438.4,128C2449,128 2457.6,136.603 2457.6,147.2C2457.6,157.797 2449,166.4 2438.4,166.4C2427.8,166.4 2419.2,157.797 2419.2,147.2C2419.2,136.603 2427.8,128 2438.4,128ZM2438.4,135.126C2445.06,135.126 2450.47,140.536 2450.47,147.2C2450.47,153.864 2445.06,159.274 2438.4,159.274C2431.74,159.274 2426.33,153.864 2426.33,147.2C2426.33,140.536 2431.74,135.126 2438.4,135.126Z" style="fill:rgb(49,52,63);"/>
            </g>
        </g>
        <path d="M2114.4,481C2130.18,481 2143,493.816 2143,509.601C2143,525.386 2130.18,538.202 2114.4,538.202C2098.61,538.202 2085.8,525.386 2085.8,509.601C2085.8,493.816 2098.61,481 2114.4,481ZM2114.4,483.96C2128.55,483.96 2140.04,495.45 2140.04,509.601C2140.04,523.752 2128.55,535.242 2114.4,535.242C2100.25,535.242 2088.76,523.752 2088.76,509.601C2088.76,495.45 2100.25,483.96 2114.4,483.96Z" style="fill:rgb(55,58,69);"/>
    </g>
</svg>
